<svg width="26" height="26" viewBox="0 0 26 26" fill="none" xmlns="http://www.w3.org/2000/svg">
<path fill-rule="evenodd" clip-rule="evenodd" d="M2.43905 3.26992C3.90572 1.72492 4.42405 1.29159 5.04905 1.08992C5.48158 0.976582 5.93521 0.970289 6.37072 1.07159C6.94405 1.23825 7.09572 1.36492 8.97572 3.23825C10.6274 4.88325 10.7924 5.06159 10.9507 5.38325C11.2535 5.94788 11.3008 6.61489 11.0807 7.21659C10.9141 7.67492 10.6774 7.97825 9.67572 8.98325L9.02238 9.63825C8.85081 9.81261 8.81049 10.0774 8.92238 10.2949C10.3739 12.7713 12.4333 14.8365 14.9057 16.2949C15.1903 16.4473 15.5408 16.3981 15.7724 16.1733L16.4007 15.5549C16.7891 15.1568 17.2003 14.7818 17.6324 14.4316C18.311 14.0149 19.1565 13.9778 19.8691 14.3333C20.2174 14.4999 20.3324 14.6033 22.0357 16.3033C23.7924 18.0549 23.8424 18.1099 24.0357 18.5116C24.3995 19.1765 24.3957 19.9818 24.0257 20.6433C23.8374 21.0166 23.7224 21.1516 22.734 22.1616C22.1374 22.7716 21.5757 23.3283 21.4857 23.4099C20.6704 24.085 19.6243 24.4161 18.5691 24.3333C16.6383 24.1573 14.7695 23.5605 13.0941 22.5849C9.3826 20.6186 6.22305 17.7535 3.90405 14.2516C3.39896 13.5187 2.9499 12.7487 2.56072 11.9483C1.51669 10.1589 0.977548 8.11981 1.00072 6.04825C1.08042 4.96452 1.60014 3.96061 2.43905 3.26992Z" stroke="black" stroke-width="2" stroke-linecap="round" stroke-linejoin="round"/>
</svg>
