<svg width="26" height="26" viewBox="0 0 26 26" fill="none" xmlns="http://www.w3.org/2000/svg">
<path fill-rule="evenodd" clip-rule="evenodd" d="M1.33337 11.3333V14.6667C1.33337 20.1895 5.81053 24.6667 11.3334 24.6667H14.6667C20.1896 24.6667 24.6667 20.1895 24.6667 14.6667V11.3333C24.6667 5.8105 20.1896 1.33334 14.6667 1.33334H11.3334C5.81053 1.33334 1.33337 5.8105 1.33337 11.3333Z" stroke="black" stroke-width="2" stroke-linecap="round" stroke-linejoin="round"/>
<path d="M13.0001 13V19.6667" stroke="black" stroke-width="2" stroke-linecap="round"/>
<path d="M13.0001 8.83335C12.5406 8.83335 12.1667 8.45952 12.1667 8.00002C12.1667 7.54052 12.5406 7.16669 13.0001 7.16669C13.4596 7.16669 13.8334 7.54052 13.8334 8.00002C13.8334 8.45952 13.4596 8.83335 13.0001 8.83335Z" fill="black"/>
<path d="M13 6.33334C13.9205 6.33334 14.6667 7.07954 14.6667 8.00001C14.6667 8.92048 13.9205 9.66668 13 9.66668C12.0796 9.66668 11.3334 8.92048 11.3334 8.00001C11.3334 7.07954 12.0796 6.33334 13 6.33334Z" fill="black"/>
</svg>
