<svg width="20" height="26" viewBox="0 0 20 26" fill="none" xmlns="http://www.w3.org/2000/svg">
<path d="M10 0.333344C9.44776 0.333332 9.00003 0.781037 9.00002 1.33332C9.00001 1.88561 9.44771 2.33333 10 2.33334L10 0.333344ZM13.1884 1.96001L13.5671 1.03452L13.5668 1.03439L13.1884 1.96001ZM16.9284 5.00001L16.0998 5.55989L16.1004 5.5608L16.9284 5.00001ZM18.3334 9.56668H19.3334L19.3334 9.56507L18.3334 9.56668ZM15.8917 15.3883L15.0845 14.798C15.0724 14.8147 15.0607 14.8317 15.0496 14.849L15.8917 15.3883ZM13.4717 19.1667L12.6296 18.6273L12.6261 18.6329L13.4717 19.1667ZM10 24.6667L9.1549 25.2013C9.33828 25.4912 9.65746 25.6668 10.0005 25.6667C10.3435 25.6665 10.6625 25.4905 10.8456 25.2004L10 24.6667ZM6.52835 19.1783L7.37348 18.6438L7.37087 18.6397L6.52835 19.1783ZM4.10835 15.3933L4.95087 14.8547C4.93981 14.8374 4.92822 14.8204 4.91612 14.8038L4.10835 15.3933ZM1.66669 9.57168L0.666687 9.57068V9.57168H1.66669ZM3.07169 5.00001L3.89965 5.5608L3.8997 5.56072L3.07169 5.00001ZM6.81169 1.96501L7.18991 2.89073L7.1916 2.89003L6.81169 1.96501ZM10.0015 2.33334C10.5538 2.33253 11.0008 1.88416 11 1.33187C10.9992 0.779587 10.5508 0.332531 9.99855 0.333345L10.0015 2.33334ZM10 11.3117C9.44774 11.3117 9.00002 11.7594 9.00002 12.3117C9.00002 12.864 9.44774 13.3117 10 13.3117V11.3117ZM10 5.82168C9.44774 5.82168 9.00002 6.26939 9.00002 6.82168C9.00002 7.37396 9.44774 7.82168 10 7.82168V5.82168ZM10.0247 13.3214C10.5768 13.3078 11.0133 12.8492 10.9997 12.297C10.9861 11.7449 10.5275 11.3084 9.97538 11.322L10.0247 13.3214ZM7.5665 10.9695L8.42839 10.4624L7.5665 10.9695ZM7.5665 8.18553L6.70461 7.67843L7.5665 8.18553ZM9.97538 7.83304C10.5275 7.84665 10.9861 7.4101 10.9997 6.85798C11.0133 6.30587 10.5768 5.84726 10.0247 5.83365L9.97538 7.83304ZM10 2.33334C10.9636 2.33336 11.918 2.52095 12.8099 2.88563L13.5668 1.03439C12.4346 0.57148 11.2232 0.33337 10 0.333344L10 2.33334ZM12.8096 2.8855C14.1463 3.43259 15.2911 4.36315 16.0998 5.55989L17.7569 4.44013C16.7272 2.91619 15.2693 1.7312 13.5671 1.03452L12.8096 2.8855ZM16.1004 5.5608C16.9017 6.74385 17.3311 8.13941 17.3334 9.56828L19.3334 9.56507C19.3304 7.73744 18.7812 5.95242 17.7563 4.43922L16.1004 5.5608ZM17.3334 9.56668C17.3334 10.5341 17.1829 11.2523 16.8534 11.9952C16.5091 12.7714 15.957 13.6051 15.0845 14.798L16.6989 15.9787C17.5731 14.7833 18.2418 13.7977 18.6816 12.8061C19.1363 11.7811 19.3334 10.7826 19.3334 9.56668H17.3334ZM15.0496 14.849L12.6296 18.6273L14.3138 19.706L16.7338 15.9277L15.0496 14.849ZM12.6261 18.6329L9.15439 24.1329L10.8456 25.2004L14.3173 19.7004L12.6261 18.6329ZM10.8451 24.1321L7.37347 18.6438L5.68324 19.7129L9.1549 25.2013L10.8451 24.1321ZM7.37087 18.6397L4.95087 14.8547L3.26584 15.932L5.68584 19.717L7.37087 18.6397ZM4.91612 14.8038C4.0432 13.6077 3.49097 12.7741 3.14653 11.9981C2.81708 11.2558 2.66669 10.539 2.66669 9.57168H0.666687C0.666687 10.7877 0.863796 11.785 1.31851 12.8095C1.75824 13.8001 2.42684 14.7856 3.30059 15.9829L4.91612 14.8038ZM2.66669 9.57267C2.66811 8.1423 3.09751 6.74508 3.89965 5.5608L2.24373 4.43922C1.21774 5.954 0.668505 7.74115 0.666687 9.57068L2.66669 9.57267ZM3.8997 5.56072C4.709 4.36561 5.85378 3.43663 7.18991 2.89073L6.43347 1.03929C4.73202 1.73446 3.27425 2.91743 2.24368 4.4393L3.8997 5.56072ZM7.1916 2.89003C8.08322 2.52384 9.03761 2.33476 10.0015 2.33334L9.99855 0.333345C8.77503 0.335146 7.56356 0.575159 6.43178 1.03999L7.1916 2.89003ZM10 13.3117C11.338 13.3117 12.5743 12.5979 13.2433 11.4392L11.5112 10.4392C11.1995 10.9791 10.6234 11.3117 10 11.3117V13.3117ZM13.2433 11.4392C13.9123 10.2805 13.9123 8.85288 13.2433 7.69418L11.5112 8.69418C11.8229 9.23408 11.8229 9.89927 11.5112 10.4392L13.2433 11.4392ZM13.2433 7.69418C12.5743 6.53547 11.338 5.82168 10 5.82168V7.82168C10.6234 7.82168 11.1995 8.15427 11.5112 8.69418L13.2433 7.69418ZM9.97538 11.322C9.34189 11.3376 8.74973 11.0086 8.42839 10.4624L6.70461 11.4766C7.39424 12.6487 8.66511 13.3549 10.0247 13.3214L9.97538 11.322ZM8.42839 10.4624C8.10705 9.91623 8.10705 9.23879 8.42839 8.69263L6.70461 7.67843C6.01498 8.85057 6.01498 10.3044 6.70461 11.4766L8.42839 10.4624ZM8.42839 8.69263C8.74973 8.14646 9.34189 7.81743 9.97538 7.83304L10.0247 5.83365C8.66511 5.80014 7.39424 6.5063 6.70461 7.67843L8.42839 8.69263Z" fill="black"/>
</svg>
