<svg width="50" height="46" viewBox="0 0 50 46" fill="none" xmlns="http://www.w3.org/2000/svg">
<circle cx="27.0643" cy="22.9358" r="22.9358" fill="#F5CB5C"/>
<path d="M26.5642 33.2774C26.5619 33.2767 26.5595 33.2761 26.5571 33.2754C26.132 33.1605 25.5137 33.0083 24.7333 32.8563C23.1731 32.5525 20.9618 32.2493 18.3487 32.2493C15.7356 32.2493 13.5242 32.5525 11.964 32.8563C11.1836 33.0083 10.5653 33.1605 10.1402 33.2754C10.1378 33.2761 10.1354 33.2767 10.1331 33.2774V11.9544C10.2468 11.9069 10.3918 11.8477 10.5645 11.78C11.0314 11.597 11.6999 11.3524 12.5025 11.1077C14.113 10.6167 16.2389 10.133 18.3487 10.133C20.4584 10.133 22.5843 10.6167 24.1948 11.1077C24.9974 11.3524 25.6659 11.597 26.1328 11.78C26.3055 11.8477 26.4505 11.9069 26.5642 11.9544V33.2774Z" fill="#FFFAED" stroke="#5E5E5E"/>
<path d="M43.9954 33.2774C43.993 33.2767 43.9907 33.2761 43.9883 33.2754C43.5631 33.1605 42.9448 33.0083 42.1645 32.8563C40.6043 32.5525 38.3929 32.2493 35.7798 32.2493C33.1667 32.2493 30.9553 32.5525 29.3951 32.8563C28.6148 33.0083 27.9965 33.1605 27.5713 33.2754C27.5689 33.2761 27.5666 33.2767 27.5642 33.2774V11.9544C27.678 11.9069 27.8229 11.8477 27.9957 11.78C28.4625 11.597 29.1311 11.3524 29.9336 11.1077C31.5441 10.6167 33.6701 10.133 35.7798 10.133C37.8895 10.133 40.0155 10.6167 41.626 11.1077C42.4285 11.3524 43.0971 11.597 43.5639 11.78C43.7367 11.8477 43.8817 11.9069 43.9954 11.9544V33.2774Z" fill="#FFFAED" stroke="#5E5E5E"/>
<rect x="13.3027" y="14.6789" width="9.63303" height="0.797112" fill="#F5CB5C"/>
<rect x="13.3027" y="18.6645" width="9.63303" height="0.797112" fill="#F5CB5C"/>
<rect x="13.3027" y="22.65" width="9.63303" height="0.797112" fill="#F5CB5C"/>
<rect x="13.3027" y="26.6356" width="9.63303" height="0.797112" fill="#F5CB5C"/>
<rect x="30.7339" y="14.6789" width="9.63303" height="0.797112" fill="#F5CB5C"/>
<rect x="30.7339" y="18.6645" width="9.63303" height="0.797112" fill="#F5CB5C"/>
<rect x="30.7339" y="22.65" width="9.63303" height="0.797112" fill="#F5CB5C"/>
<rect x="30.7339" y="26.6356" width="9.63303" height="0.797112" fill="#F5CB5C"/>
<circle cx="18.3486" cy="38.0734" r="3.62844" fill="white" stroke="#5D5D5D"/>
<circle cx="35.7799" cy="38.0734" r="3.62844" fill="white" stroke="#5D5D5D"/>
<path d="M10.0917 13.7982V9C10.0917 7.34314 8.7486 6 7.09174 6H0" stroke="#5D5D5D" stroke-width="0.9"/>
</svg>
